HIERARCHY
ROOT hip
{
  OFFSET 0 0 0
  CHANNELS 6 Xposition Yposition Zposition Zrotation Yrotation Xrotation
  JOINT abdomen
  {
    OFFSET 0 20.6881 -0.73152
    CHANNELS 3 Zrotation Xrotation Yrotation
    JOINT chest
    {
      OFFSET 0 11.7043 -0.48768
      CHANNELS 3 Zrotation Xrotation Yrotation
      JOINT neck
      {
        OFFSET 0 22.1894 -2.19456
        CHANNELS 3 Zrotation Xrotation Yrotation
        JOINT head
        {
          OFFSET -0.24384 7.07133 1.2192
          CHANNELS 3 Zrotation Xrotation Yrotation
          JOINT leftEye
          {
            OFFSET 4.14528 8.04674 8.04672
            CHANNELS 3 Zrotation Xrotation Yrotation
            End Site
            {
              OFFSET 1 0 0
            }
          }
          JOINT rightEye
          {
            OFFSET -3.6576 8.04674 8.04672
            CHANNELS 3 Zrotation Xrotation Yrotation
            End Site
            {
              OFFSET 1 0 0
            }
          }
        }
      }
      JOINT rCollar
      {
        OFFSET -2.68224 19.2634 -4.8768
        CHANNELS 3 Zrotation Xrotation Yrotation
        JOINT rShldr
        {
          OFFSET -8.77824 -1.95073 1.46304
          CHANNELS 3 Zrotation Xrotation Yrotation
          JOINT rForeArm
          {
            OFFSET -28.1742 -1.7115 0.48768
            CHANNELS 3 Zrotation Xrotation Yrotation
            JOINT rHand
            {
              OFFSET -22.5879 0.773209 7.07136
              CHANNELS 3 Zrotation Xrotation Yrotation
              JOINT rThumb1
              {
                OFFSET -1.2192 -0.487915 3.41376
                CHANNELS 3 Zrotation Xrotation Yrotation
                JOINT rThumb2
                {
                  OFFSET -3.37035 -0.52449 3.41376
                  CHANNELS 3 Zrotation Xrotation Yrotation
                  End Site
                  {
                    OFFSET -1.78271 -1.18214 1.43049
                  }
                }
              }
              JOINT rIndex1
              {
                OFFSET -7.75947 0.938293 5.60832
                CHANNELS 3 Zrotation Xrotation Yrotation
                JOINT rIndex2
                {
                  OFFSET -2.54057 -0.884171 1.56538
                  CHANNELS 3 Zrotation Xrotation Yrotation
                  End Site
                  {
                    OFFSET -1.62519 -0.234802 1.16502
                  }
                }
              }
              JOINT rMid1
              {
                OFFSET -8.24714 1.18213 3.41376
                CHANNELS 3 Zrotation Xrotation Yrotation
                JOINT rMid2
                {
                  OFFSET -3.10165 -0.590103 1.0647
                  CHANNELS 3 Zrotation Xrotation Yrotation
                  End Site
                  {
                    OFFSET -2.48547 -0.328903 0.83742
                  }
                }
              }
              JOINT rRing1
              {
                OFFSET -8.82822 0.546677 1.51678
                CHANNELS 3 Zrotation Xrotation Yrotation
                JOINT rRing2
                {
                  OFFSET -2.60934 -0.819778 -0.0198488
                  CHANNELS 3 Zrotation Xrotation Yrotation
                  End Site
                  {
                    OFFSET -2.33842 -0.294052 0.168128
                  }
                }
              }
              JOINT rPinky1
              {
                OFFSET -8.27202 -0.0477905 -0.4584
                CHANNELS 3 Zrotation Xrotation Yrotation
                JOINT rPinky2
                {
                  OFFSET -1.82734 -0.647385 -0.700984
                  CHANNELS 3 Zrotation Xrotation Yrotation
                  End Site
                  {
                    OFFSET -1.69225 -0.51767 -0.607171
                  }
                }
              }
            }
          }
        }
      }
      JOINT lCollar
      {
        OFFSET 2.68224 19.2634 -4.8768
        CHANNELS 3 Zrotation Xrotation Yrotation
        JOINT lShldr
        {
          OFFSET 8.77824 -1.95073 1.46304
          CHANNELS 3 Zrotation Xrotation Yrotation
          JOINT lForeArm
          {
            OFFSET 28.1742 -1.7115 0.48768
            CHANNELS 3 Zrotation Xrotation Yrotation
            JOINT lHand
            {
              OFFSET 22.5879 0.773209 7.07136
              CHANNELS 3 Zrotation Xrotation Yrotation
              JOINT lThumb1
              {
                OFFSET 1.2192 -0.487915 3.41376
                CHANNELS 3 Zrotation Xrotation Yrotation
                JOINT lThumb2
                {
                  OFFSET 3.37035 -0.52449 3.41376
                  CHANNELS 3 Zrotation Xrotation Yrotation
                  End Site
                  {
                    OFFSET 1.78271 -1.18214 1.43049
                  }
                }
              }
              JOINT lIndex1
              {
                OFFSET 7.75947 0.938293 5.60832
                CHANNELS 3 Zrotation Xrotation Yrotation
                JOINT lIndex2
                {
                  OFFSET 2.54057 -0.884171 1.56538
                  CHANNELS 3 Zrotation Xrotation Yrotation
                  End Site
                  {
                    OFFSET 1.62519 -0.234802 1.16502
                  }
                }
              }
              JOINT lMid1
              {
                OFFSET 8.24714 1.18213 3.41376
                CHANNELS 3 Zrotation Xrotation Yrotation
                JOINT lMid2
                {
                  OFFSET 3.10165 -0.590103 1.0647
                  CHANNELS 3 Zrotation Xrotation Yrotation
                  End Site
                  {
                    OFFSET 2.48547 -0.328903 0.83742
                  }
                }
              }
              JOINT lRing1
              {
                OFFSET 8.82822 0.546677 1.51678
                CHANNELS 3 Zrotation Xrotation Yrotation
                JOINT lRing2
                {
                  OFFSET 2.60934 -0.819778 -0.0198488
                  CHANNELS 3 Zrotation Xrotation Yrotation
                  End Site
                  {
                    OFFSET 2.33842 -0.294052 0.168128
                  }
                }
              }
              JOINT lPinky1
              {
                OFFSET 8.27202 -0.0477905 -0.4584
                CHANNELS 3 Zrotation Xrotation Yrotation
                JOINT lPinky2
                {
                  OFFSET 1.82734 -0.647385 -0.700984
                  CHANNELS 3 Zrotation Xrotation Yrotation
                  End Site
                  {
                    OFFSET 1.69225 -0.51767 -0.607171
                  }
                }
              }
            }
          }
        }
      }
    }
  }
  JOINT rButtock
  {
    OFFSET -8.77824 4.35084 1.2192
    CHANNELS 3 Zrotation Xrotation Yrotation
    JOINT rThigh
    {
      OFFSET 0 -1.70687 -2.19456
      CHANNELS 3 Zrotation Xrotation Yrotation
      JOINT rShin
      {
        OFFSET 0 -36.8199 0.73152
        CHANNELS 3 Zrotation Xrotation Yrotation
        JOINT rFoot
        {
          OFFSET 0.73152 -45.1104 -5.12064
          CHANNELS 3 Zrotation Xrotation Yrotation
          End Site
          {
            OFFSET -1.1221 -3.69964 12.103
          }
        }
      }
    }
  }
  JOINT lButtock
  {
    OFFSET 8.77824 4.35084 1.2192
    CHANNELS 3 Zrotation Xrotation Yrotation
    JOINT lThigh
    {
      OFFSET 0 -1.70687 -2.19456
      CHANNELS 3 Zrotation Xrotation Yrotation
      JOINT lShin
      {
        OFFSET 0 -36.8199 0.73152
        CHANNELS 3 Zrotation Xrotation Yrotation
        JOINT lFoot
        {
          OFFSET -0.73152 -45.1104 -5.12064
          CHANNELS 3 Zrotation Xrotation Yrotation
          End Site
          {
            OFFSET 1.1221 -3.69964 12.103
          }
        }
      }
    }
  }
}
MOTION
Frames:	6
Frame Time:	0.00833333
-5.60702 84.2564 35.4616 0.0 0.0 0.0 -1.24153 -0.00398111 -0.0340793 -0.342498 -0.00249242 -0.0593279 -9.04713e-16 -1.59028e-15 1.86361e-16 -1.89467e-15 3.18055e-15 5.80824e-16 -0.0 0.0 0.0 -0.0 0.0 0.0 -2.49717e-16 1.70831e-17 2.98177e-16 -5.20092e-15 1.30452e-16 2.5842e-15 -1.27819e-13 4.96962e-14 3.49861e-14 -1.51174e-12 1.70955e-14 4.0393e-13 -3.56445e-12 1.44044e-13 9.79611e-13 -6.16352e-12 2.48083e-13 1.67933e-12 -3.55944e-12 1.4551e-13 9.70069e-13 7.73091 5.47488 0.417314 -3.56346e-12 1.44218e-13 9.7643e-13 2.90554 0.965183 0.102902 -3.55603e-12 1.44218e-13 9.7643e-13 10.2786 0.731801 0.0259123 -3.5662e-12 1.45908e-13 9.82791e-13 2.22167 -0.733487 -0.20892 -3.46658e-16 1.74713e-17 -9.93923e-17 -9.11925e-15 -6.83322e-17 1.59028e-15 -1.35621e-13 -2.62396e-14 6.04305e-14 -1.49794e-12 9.81002e-14 4.0075e-13 -3.54814e-12 1.57887e-13 9.82791e-13 -6.11382e-12 2.76708e-13 1.7008e-12 -3.55467e-12 1.59425e-13 9.89153e-13 -7.73091 5.47488 -0.417314 -3.54791e-12 1.57537e-13 9.79611e-13 -2.90554 0.965183 -0.102902 -3.55321e-12 1.58133e-13 9.83587e-13 -10.2786 0.731801 -0.0259123 -3.54175e-12 1.5863e-13 9.7325e-13 -2.22167 -0.733487 0.20892 -2.03217e-16 0.0 -3.88251e-19 -0.453623 -1.92099 -0.00953075 -0.00915719 -2.07857 -0.0755662 -0.487682 3.99699 0.136687 2.03217e-16 0.0 3.88251e-19 -1.43706 -5.97118 0.129652 -0.0012657 5.25801 -0.0454272 0.507596 0.710721 -0.0722473
-6.58981 84.4292 34.8245 -2.4768 -4.4134 1.5413 -1.17666 0.466203 0.643199 -0.0750071 -0.319486 0.109601 -0.950347 1.28644 -0.761533 1.37554 -1.56991 -1.25618 -0.0 0.0 0.0 -0.0 0.0 0.0 2.18959e-14 2.08976e-14 -7.25451e-14 21.8471 8.93468 -3.43314 -6.20467 -3.37133 9.0151 0.0125982 2.49017 0.348777 3.4755e-11 5.08647e-11 -1.827e-10 5.87513e-11 8.91737e-11 -3.16495e-10 3.4758e-11 5.08674e-11 -1.8271e-10 7.73091 5.47488 0.417314 3.47537e-11 5.08668e-11 -1.82701e-10 2.90554 0.965183 0.102902 3.47621e-11 5.08669e-11 -1.82702e-10 10.2786 0.731801 0.0259123 3.47515e-11 5.08685e-11 -1.82693e-10 2.22167 -0.733487 -0.20892 2.17776e-14 2.08969e-14 -7.28724e-14 -22.7231 8.99121 1.96928 5.58813 -2.8879 -8.31605 -0.00113963 -0.748836 0.10521 -2.33082e-11 1.86984e-10 -1.05969e-10 -3.89559e-11 3.24856e-10 -1.83474e-10 -2.33147e-11 1.86983e-10 -1.05961e-10 -7.73091 5.47488 -0.417314 -2.33088e-11 1.86981e-10 -1.05973e-10 -2.90554 0.965183 -0.102902 -2.33123e-11 1.86982e-10 -1.05969e-10 -10.2786 0.731801 -0.0259123 -2.33014e-11 1.86983e-10 -1.05981e-10 -2.22167 -0.733487 0.20892 -2.03217e-16 0.0 -3.88251e-19 -1.4522 0.151897 0.442276 -0.00626318 -2.74591 -0.0565161 -0.624966 -0.228693 -2.70354 2.03217e-16 0.0 3.88251e-19 -0.178093 -4.04224 -2.57915 -0.0103829 4.93082 -0.0579132 0.0676933 -3.34428 6.83186
-6.58293 84.4292 34.823 -2.4511 -4.3995 1.5488 -1.12043 0.963139 1.35931 0.210078 -0.655184 0.288185 -1.91573 2.63693 -1.57096 2.74786 -3.21245 -2.59431 -0.0 0.0 0.0 -0.0 0.0 0.0 4.73764e-14 4.44366e-14 -1.52073e-13 46.16 18.2717 -7.35011 -11.6239 -6.65687 18.6433 -0.00717071 5.12315 0.719797 6.26474e-11 1.2396e-10 -3.88102e-10 1.0548e-10 2.1687e-10 -6.72145e-10 6.26482e-11 1.23964e-10 -3.88112e-10 7.73091 5.47488 0.417314 6.26435e-11 1.23964e-10 -3.881e-10 2.90554 0.965183 0.102902 6.26532e-11 1.23965e-10 -3.88103e-10 10.2786 0.731801 0.0259123 6.26422e-11 1.23966e-10 -3.88091e-10 2.22167 -0.733487 -0.20892 4.72358e-14 4.44347e-14 -1.52325e-13 -47.4496 18.459 4.21953 10.5929 -5.73723 -17.1729 0.000647192 -1.54076 0.216534 -5.61056e-11 3.87527e-10 -2.30501e-10 -9.41621e-11 6.73368e-10 -3.99108e-10 -5.61121e-11 3.87525e-10 -2.30491e-10 -7.73091 5.47488 -0.417314 -5.61072e-11 3.87522e-10 -2.30507e-10 -2.90554 0.965183 -0.102902 -5.61086e-11 3.87523e-10 -2.30502e-10 -10.2786 0.731801 -0.0259123 -5.60987e-11 3.87525e-10 -2.30516e-10 -2.22167 -0.733487 0.20892 -2.03217e-16 0.0 -3.88251e-19 -2.54318 2.34323 0.921487 -0.00268651 -3.4532 -0.0363983 -1.226 -4.67199 -5.7263 2.03217e-16 0.0 3.88251e-19 1.35107 -2.00251 -5.43242 -0.020192 4.58446 -0.0712134 0.662505 -7.44781 14.2299
-6.5811 84.4292 34.824 -2.4411 -4.4015 1.5425 -1.08028 1.4058 1.99829 0.465583 -0.953445 0.447515 -2.74828 3.8566 -2.28921 3.91969 -4.70066 -3.77985 -0.0 0.0 0.0 -0.0 0.0 0.0 6.6187e-14 6.26585e-14 -2.18232e-13 69.0501 26.3962 -11.3735 -15.5294 -9.11413 27.372 -0.0538131 7.46939 1.05429 1.11394e-10 1.52306e-10 -5.5006e-10 1.88581e-10 2.67025e-10 -9.52843e-10 1.11393e-10 1.52311e-10 -5.50069e-10 7.73091 5.47488 0.417314 1.11388e-10 1.52312e-10 -5.50055e-10 2.90554 0.965183 0.102902 1.11398e-10 1.52312e-10 -5.50059e-10 10.2786 0.731801 0.0259123 1.11387e-10 1.52314e-10 -5.50045e-10 2.22167 -0.733487 -0.20892 6.60262e-14 6.26557e-14 -2.18419e-13 -70.2097 26.8382 6.54253 14.3178 -7.93514 -25.1738 0.00483679 -2.24648 0.315844 -6.28282e-11 5.60635e-10 -3.19872e-10 -1.0464e-10 9.74016e-10 -5.53824e-10 -6.28348e-11 5.60631e-10 -3.1986e-10 -7.73091 5.47488 -0.417314 -6.28306e-11 5.60628e-10 -3.19878e-10 -2.90554 0.965183 -0.102902 -6.28304e-11 5.6063e-10 -3.19874e-10 -10.2786 0.731801 -0.0259123 -6.28208e-11 5.60632e-10 -3.19888e-10 -2.22167 -0.733487 0.20892 -2.03217e-16 0.0 -3.88251e-19 -3.54761 4.29649 1.34967 0.000858771 -4.08058 -0.0183672 -2.16137 -8.58738 -8.479 2.03217e-16 0.0 3.88251e-19 2.88534 -0.194699 -7.97612 -0.0290465 4.27645 -0.0828554 2.09317 -10.7794 20.9924
-6.5828 84.431 34.8279 -2.4467 -4.4033 1.5235 -1.05679 1.71353 2.44393 0.643165 -1.15814 0.558651 -3.32092 4.75185 -2.77525 4.7353 -5.81172 -4.57349 -0.0 0.0 0.0 -0.0 0.0 0.0 6.83232e-14 6.75878e-14 -2.50966e-13 85.8042 31.8754 -14.6439 -17.7871 -10.4546 33.5401 -0.10265 9.0998 1.28987 2.12275e-10 6.87795e-11 -6.03405e-10 3.62613e-10 1.23323e-10 -1.04616e-09 2.12273e-10 6.87847e-11 -6.03415e-10 7.73091 5.47488 0.417314 2.12269e-10 6.87843e-11 -6.03399e-10 2.90554 0.965183 0.102902 2.12279e-10 6.87855e-11 -6.03404e-10 10.2786 0.731801 0.0259123 2.12267e-10 6.87866e-11 -6.03389e-10 2.22167 -0.733487 -0.20892 6.8147e-14 6.75847e-14 -2.51115e-13 -86.5536 32.6237 8.44929 16.5394 -9.1982 -30.8199 0.00919428 -2.73668 0.384912 -4.36371e-12 6.65156e-10 -3.21338e-10 -3.29664e-12 1.155e-09 -5.56242e-10 -4.37088e-12 6.65151e-10 -3.21325e-10 -7.73091 5.47488 -0.417314 -4.36655e-12 6.65148e-10 -3.21344e-10 -2.90554 0.965183 -0.102902 -4.36595e-12 6.65149e-10 -3.2134e-10 -10.2786 0.731801 -0.0259123 -4.35478e-12 6.65153e-10 -3.21354e-10 -2.22167 -0.733487 0.20892 -2.03217e-16 0.0 -3.88251e-19 -4.26598 5.65579 1.64584 0.00338173 -4.50817 -0.00559515 -3.03985 -11.2792 -10.4441 2.03217e-16 0.0 3.88251e-19 4.04858 1.05327 -9.7513 -0.0352045 4.06429 -0.0903721 3.57123 -12.8336 25.8195
-6.57917 84.4312 34.8323 -2.4334 -4.3936 1.5031 -1.04699 1.82872 2.61303 0.716286 -1.21388 0.60073 -3.56298 5.1957 -2.92902 5.11552 -6.4223 -4.80208 -0.0 0.0 0.0 -0.0 0.0 0.0 4.04485e-14 5.03757e-14 -2.36673e-13 92.5463 33.9676 -16.0282 -18.5783 -10.8792 35.9685 -0.125182 9.72676 1.3813 4.49955e-10 -2.54493e-10 -4.67197e-10 7.74555e-10 -4.35459e-10 -8.1288e-10 4.49955e-10 -2.5449e-10 -4.67206e-10 7.73091 5.47488 0.417314 4.49952e-10 -2.54494e-10 -4.67191e-10 2.90554 0.965183 0.102902 4.49959e-10 -2.54491e-10 -4.67195e-10 10.2786 0.731801 0.0259123 4.49946e-10 -2.5449e-10 -4.67182e-10 2.22167 -0.733487 -0.20892 4.02623e-14 5.03734e-14 -2.36827e-13 -93.0681 34.8765 9.25709 17.3388 -9.6267 -33.0586 0.0111742 -2.92231 0.411088 2.01903e-10 7.0014e-10 -1.66119e-10 3.52093e-10 1.21398e-09 -2.8716e-10 2.01894e-10 7.00134e-10 -1.66105e-10 -7.73091 5.47488 -0.417314 2.019e-10 7.00132e-10 -1.66124e-10 -2.90554 0.965183 -0.102902 2.01899e-10 7.00133e-10 -1.66121e-10 -10.2786 0.731801 -0.0259123 2.01915e-10 7.0014e-10 -1.6613e-10 -2.22167 -0.733487 0.20892 -2.03217e-16 0.0 -3.88251e-19 -4.55172 6.18135 1.75223 0.0038612 -4.65074 -0.000124502 -3.43256 -12.3344 -11.2088 2.03217e-16 0.0 3.88251e-19 4.52446 1.5373 -10.4452 -0.0374929 3.98779 -0.0917325 4.24718 -13.5592 27.7265
